<?xml version="1.0" encoding="UTF-8"?>
<svg width="105px" height="89px" viewBox="0 0 105 89" version="1.1" xmlns="http://www.w3.org/2000/svg" xmlns:xlink="http://www.w3.org/1999/xlink">
    <!-- Generator: sketchtool 50.2 (55047) - http://www.bohemiancoding.com/sketch -->
    <title>02512F19-3717-44F5-B50F-327253CF275E@1x</title>
    <desc>Created with sketchtool.</desc>
    <defs></defs>
    <g id="Page-1" stroke="none" stroke-width="1" fill="none" fill-rule="evenodd">
        <g id="Enerflex-Compression" transform="translate(-1068.000000, -1577.000000)" fill="#FCAF17" stroke="#161618">
            <g id="advantages" transform="translate(0.000000, 1478.000000)">
                <path d="M1090.12451,151.749873 C1090.57684,151.737765 1091.12661,152.182312 1091.64813,152.704985 C1097.02507,158.088556 1102.40547,163.468955 1107.78558,168.849354 C1111.80813,172.871897 1115.83124,176.893863 1119.8558,180.914099 C1120.5209,181.578324 1120.52695,181.575441 1121.20242,180.899972 C1130.88356,171.21854 1140.56557,161.537973 1150.24181,151.85164 C1150.81869,151.274191 1151.40853,150.797067 1152.29186,150.825031 C1153.16827,150.852996 1153.82615,151.233542 1154.22457,151.989444 C1154.63625,152.771293 1154.59214,153.579953 1154.07322,154.305296 C1153.79675,154.691608 1153.4407,155.024297 1153.10225,155.362752 C1142.92351,165.547831 1132.74449,175.73291 1122.55307,185.905592 C1122.15695,186.301129 1121.68098,186.697531 1121.16667,186.87656 C1120.18907,187.216168 1119.37522,186.822649 1118.64757,186.092117 C1113.15733,180.576508 1107.64691,175.080792 1102.14341,169.578157 C1097.55726,164.992868 1092.97168,160.406714 1088.38697,155.819984 C1087.45233,154.885052 1087.24476,154.025941 1087.71583,153.040269 C1088.1301,152.173374 1088.82748,151.754486 1090.12451,151.749873 Z M1125.06363,156.952915 C1125.29225,156.598604 1125.44303,156.424763 1125.52836,156.223247 C1127.17076,152.339085 1128.81028,148.45377 1130.43855,144.563553 C1130.9791,143.27258 1131.61335,142.817943 1133.01243,142.817655 C1145.19018,142.814772 1157.36794,142.828322 1169.54569,142.79488 C1170.95256,142.790844 1172.01117,143.724911 1172.05009,145.004352 C1172.09103,146.34001 1171.07566,147.295123 1169.56155,147.298582 C1164.01308,147.310691 1158.46431,147.307231 1152.91613,147.307808 C1146.98336,147.308096 1141.05059,147.313862 1135.11783,147.294835 C1134.41728,147.292528 1134.05979,147.535847 1133.78361,148.202379 C1131.60873,153.448145 1129.38946,158.675461 1127.18633,163.909408 C1126.73659,164.978396 1125.95273,165.584675 1124.96158,165.542007 C1123.88106,165.495592 1123.20415,164.897674 1122.83513,163.895858 C1121.34409,159.849388 1119.83978,155.807818 1118.347,151.762212 C1116.46503,146.660303 1114.58968,141.5558 1112.71031,136.452738 C1112.33264,135.426705 1111.95095,134.402115 1111.49746,133.179467 C1111.26827,133.533202 1111.10942,133.715114 1111.01976,133.926432 C1109.12568,138.406495 1107.23477,142.888287 1105.35482,147.374403 C1104.90912,148.437913 1104.12929,148.880442 1102.98938,148.879001 C1092.46873,148.868334 1081.94837,148.876694 1071.428,148.874676 C1069.93696,148.874388 1069.00289,147.997115 1069.00001,146.629168 C1068.99741,145.287167 1069.94993,144.407011 1071.46116,144.401821 C1075.11209,144.389136 1078.76302,144.391443 1082.41425,144.391731 C1088.53902,144.392308 1094.66379,144.385677 1100.78856,144.411623 C1101.4992,144.414506 1101.86389,144.16571 1102.13402,143.515034 C1104.5303,137.738521 1106.95513,131.97354 1109.37044,126.204811 C1109.85102,125.056831 1110.5657,124.554626 1111.66381,124.598158 C1112.69301,124.639384 1113.55789,125.375106 1113.91508,126.434004 C1114.52684,128.247651 1115.15013,130.057838 1115.80858,131.854764 C1117.86987,137.478193 1119.94962,143.094992 1122.02244,148.713809 C1123.0084,151.386279 1123.99522,154.058748 1125.06363,156.952915 Z M1096.44667,100.006191 C1103.25988,99.9664065 1109.89897,102.459558 1115.37421,107.8783 C1116.8595,109.348015 1118.33181,110.830702 1119.81132,112.30647 C1120.52975,113.022876 1120.52802,113.019129 1121.22972,112.327515 C1123.12784,110.457363 1124.98156,108.539066 1126.93848,106.732627 C1130.29075,103.63925 1134.25505,101.709133 1138.70196,100.700975 C1142.41546,99.8591618 1146.14913,99.7481692 1149.8508,100.517333 C1158.08126,102.227483 1164.32135,106.709275 1168.15563,114.276083 C1170.63783,119.174169 1171.50674,124.383899 1170.82234,129.853958 C1170.41527,133.10676 1169.45699,136.169577 1167.90165,139.047311 C1167.23944,140.272553 1165.82104,140.646468 1164.70074,139.929485 C1163.80069,139.353477 1163.40919,138.293715 1163.81049,137.300836 C1164.41129,135.814689 1165.16085,134.382453 1165.67834,132.869495 C1166.75021,129.735469 1167.0829,126.505154 1166.53168,123.218045 C1165.13433,114.881785 1160.34608,109.166102 1152.732,105.813839 C1148.36466,103.890641 1143.78975,103.661161 1139.14363,104.935413 C1135.17182,106.024293 1131.82273,108.11297 1128.92684,110.98638 C1126.72861,113.167599 1124.54912,115.367269 1122.35492,117.552813 C1121.13112,118.772002 1119.8932,118.7622 1118.65931,117.542147 C1116.03008,114.942615 1113.47494,112.261497 1110.75087,109.765173 C1107.48971,106.776159 1103.60007,105.05736 1099.19237,104.395153 C1089.27252,102.904682 1079.56341,109.235869 1075.91853,118.05992 C1073.30862,124.378422 1073.814,130.56604 1076.91256,136.605763 C1077.20922,137.183789 1077.45657,137.860988 1077.4658,138.495808 C1077.47963,139.457839 1076.70384,140.262463 1075.83954,140.460808 C1074.79477,140.700955 1073.87137,140.31522 1073.32159,139.372793 C1072.17765,137.412405 1071.27702,135.323439 1070.83796,133.11339 C1070.3911,130.864999 1069.99931,128.553183 1070.02266,126.273944 C1070.09474,119.207611 1072.47401,112.976173 1077.42053,107.84457 C1080.38821,104.766473 1083.96477,102.625615 1088.04353,101.323975 C1090.50554,100.538378 1093.02926,100.134193 1096.44667,100.006191 Z" id="Improve-dynamic-balance-and-endurance"></path>
            </g>
        </g>
    </g>
</svg>