<?xml version="1.0" encoding="UTF-8"?>
<svg width="188px" height="60px" viewBox="0 0 188 60" version="1.1" xmlns="http://www.w3.org/2000/svg" xmlns:xlink="http://www.w3.org/1999/xlink">
    <!-- Generator: sketchtool 50.2 (55047) - http://www.bohemiancoding.com/sketch -->
    <title>9D87507E-81E2-4564-9999-3BE8D7855654@1x</title>
    <desc>Created with sketchtool.</desc>
    <defs></defs>
    <g id="Page-1" stroke="none" stroke-width="1" fill="none" fill-rule="evenodd">
        <g id="Enerflex-Compression" transform="translate(-765.000000, -1591.000000)" fill="#FCAF17" stroke="#161618">
            <g id="advantages" transform="translate(0.000000, 1478.000000)">
                <path d="M871.623535,141.572464 C870.520324,142.629955 870.623045,143.667258 871.763663,144.467353 C873.056878,145.375513 874.341186,146.296142 875.624307,147.219146 C877.849729,148.819336 880.068619,150.428432 882.294635,152.028028 C884.560433,153.656125 886.833059,155.274722 889.09945,156.902522 C890.804439,158.12686 892.502897,159.360105 894.206402,160.586224 C896.010549,161.883892 897.814103,163.182154 899.623594,164.472103 C900.991029,165.446467 902.359949,166.418754 903.744306,167.369367 C904.267411,167.728594 904.501947,167.60331 904.577058,166.991438 C904.597839,166.820434 904.593683,166.645571 904.593683,166.472489 C904.593683,162.368699 904.593386,158.26491 904.591605,154.160823 C904.591308,152.996158 904.588933,152.996158 905.747364,152.996158 C919.076738,152.997049 932.406113,152.998533 945.735488,152.997643 C947.335975,152.997346 947.876299,152.457319 947.877189,150.87227 C947.879564,145.630237 947.881049,140.387908 947.882533,135.145579 C947.883127,133.553108 947.307771,132.987252 945.685018,132.986955 C932.359503,132.986361 919.034284,132.986361 905.709363,132.985768 C904.591605,132.985768 904.596058,132.985471 904.596355,131.856134 C904.597246,127.678124 904.601105,123.500115 904.589824,119.322105 C904.587152,118.301427 904.384679,118.180596 903.555489,118.749124 C902.048817,119.782567 900.574505,120.862621 899.085942,121.922191 C896.873286,123.497146 894.656474,125.067054 892.44738,126.64765 C890.177723,128.270699 887.917566,129.907109 885.649393,131.532534 C883.963108,132.740544 882.2694,133.93846 880.581927,135.144688 C878.813999,136.407918 877.048149,137.674116 875.282893,138.941206 C874.01907,139.847584 872.757621,140.756931 871.623535,141.572464 M868.380404,147.189755 C865.614065,144.36107 866.016339,140.272124 869.252938,138.007811 C872.024028,136.068879 874.734554,134.043259 877.485159,132.074639 C880.175793,130.149364 882.888694,128.256152 885.581407,126.333549 C887.791391,124.755625 889.980297,123.14742 892.188797,121.566824 C894.39789,119.986525 896.616781,118.420179 898.836562,116.855615 C899.884849,116.116975 900.90909,115.332911 902.010519,114.682741 C903.971123,113.525498 906.34172,113.869287 907.684217,115.487289 C908.605143,116.597032 908.90054,117.95081 908.902024,119.370496 C908.905587,122.164149 908.926665,124.957802 908.885102,127.75086 C908.873523,128.520377 909.138935,128.707412 909.871341,128.706224 C921.88286,128.687818 933.894676,128.692568 945.906195,128.69613 C949.635023,128.697318 952.173358,131.255841 952.172764,135.000701 C952.17217,140.365345 952.171577,145.729692 952.168608,151.093743 C952.166827,154.80179 949.694993,157.290546 945.987837,157.292327 C933.967412,157.297671 921.947283,157.294405 909.926858,157.294999 C908.897571,157.294999 908.894008,157.297374 908.892524,158.325771 C908.888367,161.094782 908.945962,163.865575 908.85482,166.631617 C908.821569,167.641608 908.630081,168.738287 908.177337,169.624774 C906.960421,172.006356 904.22555,172.700464 901.898595,171.233574 C899.95907,170.011314 898.122859,168.625175 896.251023,167.296928 C894.499423,166.053887 892.761481,164.790954 891.016709,163.538115 C889.292126,162.299823 887.565168,161.0645 885.840882,159.825912 C884.075626,158.558822 882.312151,157.289358 880.548676,156.019894 C878.785498,154.75043 877.024993,153.476809 875.26033,152.209423 C873.575529,150.999632 871.882712,149.801419 870.201771,148.586284 C869.582179,148.137993 868.986933,147.656155 868.380404,147.189755 M846.263671,141.671326 C846.172231,141.600371 845.963821,141.425211 845.742644,141.268161 C843.508316,139.680737 841.263003,138.108454 839.037878,136.508264 C836.31132,134.547957 833.60792,132.554399 830.880768,130.594389 C828.153617,128.634676 825.402418,126.70851 822.674377,124.749985 C819.966226,122.806006 817.278263,120.833824 814.566846,118.894299 C814.26284,118.676982 813.862941,118.593855 813.507871,118.448086 C813.417619,118.81711 813.251069,119.185242 813.249287,119.554266 C813.228803,123.709119 813.233256,127.863972 813.230881,132.018825 C813.230287,132.989033 813.230287,132.991408 812.257407,132.991111 C798.858562,132.990815 785.459717,132.98933 772.061169,132.98933 C770.530746,132.98933 769.941437,133.568842 769.941437,135.07403 C769.941734,140.315469 769.944109,145.556314 769.946781,150.797159 C769.947078,152.483444 770.465135,152.994674 772.17814,152.994971 C785.557688,152.997346 798.936642,153.003877 812.315596,152.986361 C813.024845,152.98547 813.235928,153.170131 813.230287,153.898974 C813.197333,158.077875 813.219005,162.257072 813.224349,166.43627 C813.224646,166.65804 813.221974,166.884857 813.263834,167.10069 C813.349633,167.540965 813.579122,167.704843 813.997131,167.421322 C814.385452,167.158285 814.785351,166.910686 815.166546,166.637852 C817.395531,165.042709 819.617984,163.43866 821.847265,161.84411 C823.534145,160.637288 825.22993,159.442044 826.918294,158.236706 C828.686519,156.97407 830.449697,155.704606 832.21614,154.439001 C833.922317,153.216444 835.629087,151.994778 837.336154,150.773408 C839.083004,149.523241 840.833713,148.278121 842.577296,147.023204 C843.839635,146.114747 845.130178,145.239838 846.337891,144.263099 C847.256145,143.520599 847.216363,142.592251 846.263671,141.671326 M767.389149,130.436745 C768.636644,129.200235 770.150441,128.699396 771.889275,128.70088 C783.880606,128.712162 795.87164,128.706521 807.862674,128.705927 C808.91779,128.705927 808.922837,128.703849 808.924618,127.63567 C808.929665,124.988974 808.865242,122.339903 808.961728,119.696472 C809.002401,118.585839 809.195967,117.407517 809.638024,116.399605 C810.754,113.853849 813.650077,113.471763 815.760309,114.669085 C817.128041,115.445429 818.392755,116.408215 819.682407,117.317859 C821.478539,118.584355 823.253295,119.880538 825.039036,121.161581 C826.724134,122.371075 828.412498,123.576116 830.097299,124.786798 C831.841773,126.040527 833.582982,127.29871 835.326268,128.554518 C837.630364,130.214381 839.932084,131.87751 842.239742,133.532029 C843.966107,134.769727 845.702268,135.992878 847.42982,137.229091 C848.777364,138.193362 850.141534,139.13121 850.826736,140.7504 C851.935587,143.370674 851.001896,146.184811 848.854553,147.758876 C845.289603,150.372322 841.663793,152.902641 838.072123,155.47957 C834.882431,157.768524 831.710848,160.083604 828.518484,162.368403 C825.325526,164.652904 822.124849,166.927311 818.909625,169.180343 C817.721507,170.013095 816.560701,170.952427 815.249376,171.527783 C812.355081,172.797841 809.643961,171.259996 809.083153,168.142743 C808.92254,167.250318 808.925212,166.322267 808.91868,165.410248 C808.900274,163.011447 808.895227,160.612053 808.935603,158.213846 C808.947775,157.48144 808.687113,157.291436 807.983208,157.292624 C795.98683,157.309546 783.991046,157.304796 771.994965,157.300936 C768.084445,157.299452 765.662487,154.871854 765.659815,150.959553 C765.656253,145.569377 765.657143,140.178904 765.654472,134.788431 C765.654175,133.106598 766.17342,131.634958 767.389149,130.436745" id="Reduce-swelling-and-soreness"></path>
            </g>
        </g>
    </g>
</svg>