<?xml version="1.0" encoding="UTF-8"?>
<svg width="152px" height="79px" viewBox="0 0 152 79" version="1.1" xmlns="http://www.w3.org/2000/svg" xmlns:xlink="http://www.w3.org/1999/xlink">
    <!-- Generator: sketchtool 50.2 (55047) - http://www.bohemiancoding.com/sketch -->
    <title>6C530D71-6284-48E9-A8F1-317FEE8221A2@1x</title>
    <desc>Created with sketchtool.</desc>
    <defs></defs>
    <g id="Page-1" stroke="none" stroke-width="1" fill="none" fill-rule="evenodd">
        <g id="Enerflex-Compression" transform="translate(-498.000000, -1581.000000)" fill="#FCAF17" stroke="#161618">
            <g id="advantages" transform="translate(0.000000, 1478.000000)">
                <path d="M503.577951,156.808903 C503.64167,156.786857 503.705927,156.76508 503.769645,156.743033 C504.323757,157.345808 505.021437,157.573259 505.822896,157.569496 C507.659448,157.560892 509.49627,157.552826 511.332285,157.576217 C511.884514,157.583207 512.075401,157.399041 512.066798,156.837133 C512.036148,154.867766 512.050398,152.897592 512.047709,150.927687 C512.037493,143.497056 512.02647,136.066425 512.019748,128.635793 C512.019211,128.192182 512.062227,127.800728 511.396541,127.810676 C509.470997,127.838637 507.544109,127.791587 505.618834,127.821699 C504.042534,127.845896 502.91334,128.981273 502.91576,130.559993 C502.92759,138.667334 502.948023,146.774674 503.012548,154.881477 C503.017925,155.525655 503.381418,156.166338 503.577951,156.808903 M644.028386,156.857028 C644.005534,156.794923 643.982412,156.732817 643.959559,156.670442 C644.618256,156.09079 644.820973,155.335843 644.820973,154.494863 C644.818553,146.520337 644.822586,138.546349 644.815864,130.572091 C644.814251,128.796031 643.696887,127.682969 641.915181,127.668989 C640.124334,127.655008 638.33268,127.695874 636.54264,127.653126 C635.8377,127.635919 635.677731,127.899936 635.684184,128.555137 C635.713489,131.509322 635.694938,134.464045 635.695207,137.418499 C635.695745,143.842266 635.697358,150.266302 635.696551,156.690338 C635.696551,157.099536 635.630144,157.492872 636.274322,157.485075 C638.244765,157.461416 640.217627,157.530511 642.185112,157.454963 C642.806169,157.431304 643.41432,157.065929 644.028386,156.857028 M608.539716,135.471716 C608.22381,135.453971 607.937479,135.42386 607.651417,135.42386 C596.654416,135.421709 585.657953,135.422784 574.661221,135.422784 C563.082148,135.423053 551.503344,135.427624 539.924271,135.410686 C539.284126,135.409879 539.088937,135.585173 539.093776,136.241181 C539.123888,140.5383 539.123888,144.835957 539.097809,149.133076 C539.094314,149.744991 539.299451,149.892593 539.865123,149.886409 C541.992577,149.862481 544.120301,149.876999 546.248024,149.876999 L591.869324,149.876999 C597.17734,149.876999 602.485357,149.877806 607.793104,149.877537 C608.218702,149.877537 608.625481,149.952279 608.621179,149.259975 C608.595638,144.851012 608.608812,140.442049 608.605317,136.033086 C608.605317,135.860481 608.566333,135.687607 608.539716,135.471716 M613.599578,176.370837 C614.149388,177.030339 614.897344,177.191653 615.709288,177.191384 C619.896445,177.189233 624.083334,177.193535 628.270222,177.184394 C630.504412,177.179823 631.51504,176.167582 631.509394,173.9385 C631.49622,168.943701 631.458312,163.948901 631.453203,158.954102 C631.444331,150.803475 631.446213,142.653118 631.45643,134.502491 C631.466108,126.686321 631.495682,118.870151 631.507781,111.053712 C631.510738,109.238937 630.472418,108.132865 628.725663,108.125337 C624.337133,108.106249 619.948872,108.104635 615.560342,108.120767 C613.95151,108.126682 612.800002,109.274426 612.796775,110.886484 C612.782526,118.032666 612.790861,125.179117 612.790861,132.325299 C612.790861,139.22037 612.790592,146.11544 612.790592,153.010511 C612.790323,160.156693 612.788979,167.302875 612.792743,174.449326 C612.793011,175.194862 613.009978,175.862431 613.599578,176.370837 M534.133122,108.942389 C533.587614,108.288801 532.827021,108.107055 531.986847,108.108131 C527.755329,108.11297 523.523273,108.154643 519.292561,108.09415 C517.437458,108.067533 516.159049,109.350781 516.186204,111.227662 C516.25987,116.311453 516.232178,121.396856 516.231102,126.481722 C516.227338,142.382918 516.215778,158.283845 516.210938,174.185041 C516.210401,176.014334 517.300072,177.174446 519.094415,177.182781 C523.459823,177.203214 527.825769,177.19945 532.191715,177.177672 C533.759143,177.169875 534.923288,176.014065 534.926514,174.452014 C534.941839,167.284055 534.939419,160.115827 534.930278,152.947868 C534.922213,146.365476 534.882153,139.783622 534.88296,133.201499 C534.884035,125.742638 534.917104,118.284046 534.929741,110.825454 C534.930816,110.107341 534.728906,109.453215 534.133122,108.942389 M646.964021,159.627047 C645.558444,160.972132 643.974346,161.674652 642.076495,161.656101 C640.195312,161.638087 638.313054,161.685944 636.431871,161.652068 C635.787962,161.640507 635.58417,161.831126 635.58874,162.483907 C635.614819,166.451409 635.602721,170.41918 635.601914,174.386682 C635.601376,178.409569 632.736451,181.275032 628.700391,181.278258 C624.423167,181.281484 620.146212,181.277451 615.869257,181.269117 C614.485995,181.266159 613.157311,181.033062 611.941277,180.311453 C609.56782,178.90265 608.708288,176.706637 608.703718,174.082069 C608.692157,167.763962 608.699416,161.445856 608.699147,155.127749 C608.699147,154.053402 608.698609,154.052595 607.651417,154.052595 C585.093088,154.052595 562.534758,154.052595 539.976429,154.053133 C538.99645,154.053133 538.995106,154.054209 538.996182,155.069945 C539.003978,161.388052 539.01312,167.706158 539.018766,174.024265 C539.02011,175.430917 538.791314,176.782186 538.067554,178.020535 C536.778661,180.225419 534.757673,181.206473 532.311894,181.244382 C527.812057,181.314016 523.308726,181.342514 518.809965,181.243307 C514.780626,181.154584 512.162511,178.311705 512.128097,174.175093 C512.095834,170.321586 512.113041,166.467809 512.107933,162.614302 C512.106589,161.656101 512.105244,161.66094 511.147581,161.660671 C509.422603,161.660402 507.697626,161.671694 505.973186,161.646153 C501.588689,161.580821 498.915457,158.882586 498.896906,154.506155 C498.870021,148.211707 498.847706,141.917529 498.837489,135.623082 C498.833994,133.630593 498.789902,131.632189 498.916264,129.646153 C499.110109,126.593566 501.650525,124.029759 504.71064,123.827311 C506.875196,123.68428 509.053464,123.730254 511.22528,123.739664 C511.868114,123.742353 512.072175,123.552272 512.067067,122.898415 C512.037224,119.024743 512.045827,115.150265 512.04744,111.276325 C512.047978,109.865908 512.304735,108.517329 513.063446,107.299144 C514.353953,105.227612 516.275732,104.166976 518.659675,104.139553 C523.384812,104.084975 528.11452,104.062123 532.836969,104.205154 C536.051137,104.302211 538.625161,106.888064 538.853419,110.094973 C539.008549,112.279156 538.937571,114.480815 538.944561,116.674677 C538.95908,121.220756 538.957735,125.766835 538.963919,130.312915 C538.965263,131.243155 538.967683,131.246381 539.9033,131.246112 C560.557594,131.24423 581.211888,131.241542 601.865913,131.23966 C603.859478,131.23966 605.854117,131.214119 607.846606,131.261975 C608.546168,131.279182 608.714203,131.043664 608.711783,130.380397 C608.690813,124.017392 608.698878,117.654655 608.700223,111.29165 C608.700491,109.885535 608.91235,108.526201 609.640411,107.291885 C610.94678,105.076784 612.979866,104.0839 615.460866,104.051368 C619.916072,103.993296 624.373698,103.9734 628.828366,104.050831 C631.670439,104.100031 633.916727,105.334885 635.005861,108.08017 C635.399466,109.07144 635.556746,110.211119 635.575029,111.287079 C635.641436,115.117196 635.616701,118.949195 635.587665,122.780118 C635.582288,123.460054 635.779628,123.668686 636.462252,123.652824 C638.208469,123.61142 639.956568,123.639919 641.703592,123.653361 C646.033511,123.686699 648.809177,126.452417 648.819931,130.774002 C648.833911,136.349798 648.823426,141.925863 648.823964,147.50166 C648.824233,150.032129 648.824233,152.562598 648.826652,155.092798 C648.828534,156.889022 648.148867,158.396495 646.964021,159.627047" id="Stabilize-and-support-joints"></path>
            </g>
        </g>
    </g>
</svg>