<?xml version="1.0" encoding="UTF-8"?>
<svg width="150px" height="87px" viewBox="0 0 150 87" version="1.1" xmlns="http://www.w3.org/2000/svg" xmlns:xlink="http://www.w3.org/1999/xlink">
    <!-- Generator: sketchtool 50.2 (55047) - http://www.bohemiancoding.com/sketch -->
    <title>4EB6603A-3CAB-4FF1-A7B6-C8E4E70E0509@1x</title>
    <desc>Created with sketchtool.</desc>
    <defs></defs>
    <g id="Page-1" stroke="none" stroke-width="1" fill="none" fill-rule="evenodd">
        <g id="Enerflex-Compression" transform="translate(-232.000000, -1578.000000)" fill="#FCAF17">
            <g id="advantages" transform="translate(0.000000, 1478.000000)">
                <path d="M381.967488,176.553429 C381.709833,176.566313 381.447195,176.59091 381.183971,176.591203 C377.422328,176.594424 373.660685,176.595595 369.899041,176.594717 C368.94053,176.594424 368.919718,176.570998 368.915908,175.607914 C368.913563,175.046578 368.948444,174.483193 368.906528,173.924786 C368.861387,173.317185 369.091195,173.118946 369.698838,173.124509 C372.385601,173.149399 375.072363,173.135637 377.759419,173.134465 C378.811729,173.134173 378.837817,173.131537 378.784469,172.08295 C378.542643,167.35186 377.970467,162.672893 376.866274,158.050148 C375.477459,152.235918 373.40303,146.699868 370.595501,141.429404 C370.084002,140.468956 370.093675,140.466613 369.136043,141.010672 C366.762629,142.3594 364.379541,143.690852 362.020783,145.064762 C361.525992,145.352897 361.297063,145.255095 361.068721,144.781898 C360.783219,144.190402 360.463422,143.614133 360.135711,143.04372 C359.88216,142.603319 359.917042,142.335974 360.415057,142.059845 C362.88784,140.689156 365.335121,139.272494 367.798817,137.884821 C368.224138,137.645002 368.440756,137.429486 368.117735,136.921444 C364.258775,130.850704 359.703355,125.355649 354.20584,120.714162 C351.363136,118.313626 348.242259,116.242804 345.255925,114.011225 C344.722735,113.612404 344.416422,113.658084 344.075227,114.278862 C342.748261,116.690233 341.352117,119.064123 340.022806,121.474323 C339.699785,122.060548 339.398455,122.177968 338.828917,121.823949 C338.131579,121.390283 337.395254,121.019866 336.608513,120.584443 C337.55442,118.912442 338.462807,117.306619 339.372074,115.700795 C339.959785,114.66187 340.534305,113.61504 341.144,112.589292 C341.415432,112.133079 341.381136,111.872469 340.873448,111.613324 C336.390723,109.326401 331.745315,107.458797 326.910256,106.049748 C321.401895,104.444803 315.786837,103.522128 310.057755,103.267082 C308.843934,103.21291 308.81638,103.229894 308.81638,104.434847 C308.81638,107.045628 308.799672,109.656702 308.829277,112.267483 C308.836312,112.893239 308.675681,113.164097 308.010293,113.107583 C307.404115,113.055754 306.787678,113.064831 306.179742,113.105241 C305.569167,113.14565 305.375706,112.908759 305.381275,112.306721 C305.406191,109.647332 305.394173,106.987357 305.393,104.327675 C305.392707,103.220231 305.377465,103.214374 304.289687,103.261225 C300.307908,103.433696 296.349287,103.840423 292.449289,104.660318 C285.759058,106.066732 279.363707,108.30651 273.350589,111.594583 C272.7875,111.90263 272.854625,112.190472 273.111107,112.638193 C274.479404,115.026724 275.833924,117.423454 277.190496,119.819012 C277.319763,120.047412 277.429097,120.287231 277.592953,120.61109 C276.676065,121.104491 275.815164,121.599357 274.916743,122.013111 C274.796856,122.068454 274.405244,121.7607 274.278029,121.540793 C272.960735,119.263533 271.671875,116.969583 270.3751,114.680025 C270.267231,114.489107 270.157603,114.299067 270.054424,114.105513 C269.845428,113.713427 269.622068,113.60362 269.186781,113.882677 C265.626806,116.164622 262.240653,118.674965 259.098671,121.505361 C254.139915,125.97262 249.843323,131.001214 246.293607,136.659077 C245.776246,137.483072 245.77478,137.514111 246.59523,137.978816 C248.97011,139.323737 251.335024,140.687985 253.725439,142.005381 C254.302891,142.323383 254.37412,142.619424 254.031753,143.152356 C253.690265,143.683531 253.3904,144.247209 253.130694,144.823186 C252.906455,145.319808 252.662284,145.31688 252.227583,145.066226 C249.863255,143.701979 247.482513,142.366428 245.109685,141.017114 C244.141207,140.46632 244.102515,140.444359 243.65052,141.498803 C242.136835,145.030795 240.528471,148.529698 239.196814,152.13021 C237.819431,155.853999 236.849781,159.718342 236.336523,163.665845 C235.966016,166.515274 235.761417,169.385787 235.461845,172.244879 C235.387392,172.957017 235.647685,173.160234 236.355283,173.150278 C239.041459,173.111333 241.729101,173.151156 244.41557,173.12041 C245.075096,173.11309 245.355615,173.297859 245.303439,173.987449 C245.253608,174.64278 245.285558,175.30426 245.292007,175.963104 C245.295818,176.379201 245.131083,176.594424 244.686416,176.593545 C240.558369,176.585932 236.430322,176.586518 232.302276,176.580954 C232.210235,176.580954 232.117902,176.535274 232.030844,176.512141 C231.40151,156.045796 240.329147,129.430236 265.579613,112.605104 C291.082165,95.6118945 322.567351,96.4613647 346.205056,111.182879 C373.622579,128.258078 382.617341,156.10231 381.967488,176.553429 M318.275713,170.771966 C323.935032,163.026005 329.454825,155.471255 334.974325,147.916504 C334.9072,147.850913 334.840075,147.784736 334.77295,147.718851 C327.340531,153.175548 319.908113,158.632244 312.35141,164.180007 C315.11116,165.782317 316.934676,167.921658 318.275713,170.771966 M306.993128,183.674484 C311.904691,183.677705 315.742253,179.848501 315.73346,174.953433 C315.725252,170.164658 311.798288,166.258442 306.998404,166.264884 C302.187675,166.271619 298.263935,170.179592 298.267452,174.96046 C298.271556,179.743086 302.205262,183.672141 306.993128,183.674484 M350.468203,132.394714 C349.432894,133.836851 348.402568,135.282795 347.361396,136.720248 C338.108393,149.492753 328.850113,162.261745 319.613231,175.045964 C319.316005,175.457375 319.124889,176.008462 319.061868,176.516504 C318.447482,181.45286 314.528139,186.029048 309.648526,186.775152 C303.26109,187.751706 297.765919,185.641354 295.42211,178.591425 C293.315731,172.25422 296.76256,165.541034 303.112184,163.445323 C304.690356,162.924396 306.284943,162.737577 307.944018,162.930253 C308.317163,162.97359 308.791728,162.755146 309.116802,162.517377 C315.276774,158.009124 321.420039,153.478909 327.568874,148.956307 C334.975497,143.508981 342.383294,138.063997 349.792262,132.619599 C349.965498,132.49193 350.154855,132.385344 350.336591,132.269094 C350.380266,132.310967 350.424528,132.352841 350.468203,132.394714" id="10-times-more-effective-recovery"></path>
            </g>
        </g>
    </g>
</svg>